<svg xmlns="http://www.w3.org/2000/svg" id="Layer_2" viewBox="204.19 318.56 941.6 468.97">
  <defs>
    <style>
      .cls-1 {
        fill: #1e1f56;
      }

      .cls-2 {
        fill: #ccdbf1;
      }
    </style>
  </defs>
  <path class="cls-1" d="M1127.85,564.96c2.61-1.38,5.02-3.15,7.15-5.28,5.63-5.63,8.79-13.26,8.79-21.22,0-65.14-39.28-107.64-100.38-109.14-5.38-8.06-14.56-13.37-24.98-13.37h-65.38c-3,0-5.89.45-8.62,1.26-10.44-56.07-59.73-98.65-118.78-98.65-64.94,0-118.09,51.51-120.72,115.82-7.33,3.21-13.13,9.27-16,16.77-19.41-19.75-45.75-32.66-75.04-34.74v-66.4c0-16.57-13.43-30-30-30h-65.38c-16.57,0-30,13.43-30,30v8.77l-15.3-13.03c-20.38-17.36-46.41-26.92-73.29-26.92-33.33,0-64.77,14.47-86.25,39.69-19.54,22.94-28.97,52.21-26.56,82.41.61,7.59,1.94,15,3.97,22.16l-51.13.85c-10.55.18-20.46,4.83-27.2,12.78s-9.71,18.49-8.16,28.92l10.15,68.28c2.77,18.62,19.08,32.66,37.93,32.66,5.44,0,10.72-1.2,15.51-3.43l45.28,38.57c20.39,17.37,46.42,26.93,73.31,26.93,33.34,0,64.78-14.47,86.27-39.7,6.19-7.26,11.36-15.16,15.47-23.53v32.04c0,16.57,13.43,30,30,30h65.48c4.17,0,8.14-.85,11.75-2.39v4.06c0,65.29,53.28,118.4,118.76,118.4s118.76-53.12,118.76-118.4v-4.88c4.15,2.09,8.77,3.21,13.51,3.21h69.7c6.84,0,13.14-2.29,18.18-6.14,5.08,3.95,11.46,6.31,18.39,6.31h65.48c11.62,0,21.69-6.61,26.67-16.27,10.69,9.98,25.03,16.11,40.78,16.11,32.99,0,59.82-26.84,59.82-59.82,0-16.7-6.89-31.81-17.96-42.68Z"/>
  <g>
    <path class="cls-2" d="M1040.06,459.27h0c-7.46,0-14.7.95-21.62,2.74v-16.07h-65.38v191.68s0,0,0,0h65.48v-99.21c0-11.48,9.39-20.88,20.88-20.88s20.88,9.4,20.88,20.88l53.5.04c0-47.85-25.88-79.18-73.73-79.18Z"/>
    <circle class="cls-2" cx="1085.99" cy="607.64" r="29.82"/>
    <path class="cls-2" d="M825.66,348.56h0c-49.95,0-90.83,40.87-90.83,90.83v22.48h-17.87v53.68h17.87v133.35h.33v28.21c0,11.67-9.59,21.21-21.3,21.21s-21.3-9.55-21.3-21.21v-114.02h-.04v-29.98c0-47.85-39.15-87-87-87h0c-7.46,0-14.7.95-21.62,2.74v-98.84h-65.38v39.78c4.42-2.29,9.39-3.54,14.53-3.54,16.4,0,30.58,12.21,32.98,28.39l10.15,68.28c1.34,9.01-1.22,18.1-7.03,24.95-5.81,6.85-14.36,10.87-23.47,11.02l-27.17.45v118.12h65.48v-112.21c0-11.48,9.39-20.88,20.88-20.88s20.88,9.4,20.88,20.88v37.84h0v106.04c0,48.62,39.94,88.4,88.76,88.4h0c48.82,0,88.76-39.78,88.76-88.4v-106.04h-.08v-47.54h21.47v-53.68h-21.47v-30.69c0-11.99,9.81-21.8,21.8-21.8s21.8,9.81,21.8,21.8v206.28s69.7,0,69.7,0v-198.07c0-49.95-40.87-90.83-90.82-90.83Z"/>
    <path class="cls-2" d="M528.16,413.44l-9.11,10.75-65.28-55.61c-34.82-29.66-87.59-25.44-117.25,9.38h0c-29.66,34.82-25.44,87.59,9.38,117.25l59.49,50.67c8.14,7.16,9.07,19.66,2.02,27.94h0c-7.12,8.36-19.79,9.37-28.15,2.25l-71.5-60.9,8.68-10.23c3.9-4.6-.49-12.27-6.95-12.17l-69.02,1.15c-4.01.07-6.78,3.33-6.19,7.3l10.15,68.28c.95,6.39,9.24,9.47,13.14,4.87l9.69-11.43,65.66,55.93c34.84,29.67,87.62,25.45,117.29-9.39h0c29.67-34.84,25.45-87.62-9.39-117.29l-60.06-51.16c-7.62-7.23-8.34-19.34-1.45-27.42,7.12-8.36,19.78-9.37,28.14-2.25l71.11,60.57-9.27,10.93c-3.9,4.6.49,12.27,6.95,12.17l69.02-1.15c4.01-.07,6.78-3.33,6.19-7.3l-10.15-68.28c-.95-6.39-9.24-9.47-13.14-4.87Z"/>
  </g>
</svg>