<?xml version="1.0" encoding="UTF-8"?>
<svg id="Layer_1" xmlns="http://www.w3.org/2000/svg" viewBox="0 0 1350 1080">
  <defs>
    <style>
      .cls-1 {
        fill: #ccdbf1;
      }
    </style>
  </defs>
  <path class="cls-1" d="M1040.06,446.23h0c-7.46,0-14.7.95-21.62,2.74v-16.07h-65.38v191.68s0,0,0,0h65.48v-99.21c0-11.48,9.39-20.88,20.88-20.88s20.88,9.4,20.88,20.88l53.5.04c0-47.85-25.88-79.18-73.73-79.18Z"/>
  <circle class="cls-1" cx="1085.99" cy="594.59" r="29.82"/>
  <path class="cls-1" d="M825.66,335.52h0c-49.95,0-90.83,40.87-90.83,90.83v22.48h-17.87v53.68h17.87v133.35h.33v28.21c0,11.67-9.59,21.21-21.3,21.21s-21.3-9.55-21.3-21.21v-114.02h-.04v-29.98c0-47.85-39.15-87-87-87h0c-7.46,0-14.7.95-21.62,2.74v-98.84h-65.38v39.78c4.42-2.29,9.39-3.54,14.53-3.54,16.4,0,30.58,12.21,32.98,28.39l10.15,68.28c1.34,9.01-1.22,18.1-7.03,24.95-5.81,6.85-14.36,10.87-23.47,11.02l-27.17.45v118.12h65.48v-112.21c0-11.48,9.39-20.88,20.88-20.88s20.88,9.4,20.88,20.88v37.84h0v106.04c0,48.62,39.94,88.4,88.76,88.4h0c48.82,0,88.76-39.78,88.76-88.4v-106.04h-.08v-47.54h21.47v-53.68h-21.47v-30.69c0-11.99,9.81-21.8,21.8-21.8s21.8,9.81,21.8,21.8v206.28s69.7,0,69.7,0v-198.07c0-49.95-40.87-90.83-90.82-90.83Z"/>
  <path class="cls-1" d="M528.16,400.39l-9.11,10.75-65.28-55.61c-34.82-29.66-87.59-25.44-117.25,9.38h0c-29.66,34.82-25.44,87.59,9.38,117.25l59.49,50.67c8.14,7.16,9.07,19.66,2.02,27.94h0c-7.12,8.36-19.79,9.37-28.15,2.25l-71.5-60.9,8.68-10.23c3.9-4.6-.49-12.27-6.95-12.17l-69.02,1.15c-4.01.07-6.78,3.33-6.19,7.3l10.15,68.28c.95,6.39,9.24,9.47,13.14,4.87l9.69-11.43,65.66,55.93c34.84,29.67,87.62,25.45,117.29-9.39h0c29.67-34.84,25.45-87.62-9.39-117.29l-60.06-51.16c-7.62-7.23-8.34-19.34-1.45-27.42,7.12-8.36,19.78-9.37,28.14-2.25l71.11,60.57-9.27,10.93c-3.9,4.6.49,12.27,6.95,12.17l69.02-1.15c4.01-.07,6.78-3.33,6.19-7.3l-10.15-68.28c-.95-6.39-9.24-9.47-13.14-4.87Z"/>
</svg>